<mxfile host="app.diagrams.net" modified="2023-05-21T09:10:18.986Z" agent="Mozilla/5.0 (Macintosh; Intel Mac OS X 10_15_7) AppleWebKit/537.36 (KHTML, like Gecko) Chrome/113.0.0.0 Safari/537.36" etag="7L8_wc5e1hKhV3-RmqrS" version="21.3.2" type="device">
  <diagram name="第 1 页" id="qdYDa9bMn7iWmHlIjC0F">
    <mxGraphModel dx="954" dy="559" grid="1" gridSize="10" guides="1" tooltips="1" connect="1" arrows="1" fold="1" page="1" pageScale="1" pageWidth="827" pageHeight="1169" math="0" shadow="0">
      <root>
        <mxCell id="0" />
        <mxCell id="1" parent="0" />
        <mxCell id="VaJh7SRLxxNy-uP_d12Z-1" value="&lt;font style=&quot;font-size: 18px;&quot;&gt;&lt;b&gt;BootROM&lt;br&gt;(M-mode)&lt;br&gt;&lt;/b&gt;&lt;/font&gt;" style="rounded=0;whiteSpace=wrap;html=1;shadow=1;" vertex="1" parent="1">
          <mxGeometry x="140" y="310" width="140" height="100" as="geometry" />
        </mxCell>
        <mxCell id="VaJh7SRLxxNy-uP_d12Z-2" value="" style="shape=flexArrow;endArrow=classic;html=1;rounded=0;fillColor=#000000;" edge="1" parent="1">
          <mxGeometry width="50" height="50" relative="1" as="geometry">
            <mxPoint x="140" y="180" as="sourcePoint" />
            <mxPoint x="220" y="180" as="targetPoint" />
          </mxGeometry>
        </mxCell>
        <mxCell id="VaJh7SRLxxNy-uP_d12Z-3" value="Jumps" style="text;strokeColor=none;fillColor=none;html=1;fontSize=24;fontStyle=1;verticalAlign=middle;align=center;" vertex="1" parent="1">
          <mxGeometry x="220" y="160" width="100" height="40" as="geometry" />
        </mxCell>
        <mxCell id="VaJh7SRLxxNy-uP_d12Z-5" value="" style="shape=flexArrow;endArrow=classic;html=1;rounded=0;fillColor=#FFFFFF;" edge="1" parent="1">
          <mxGeometry width="50" height="50" relative="1" as="geometry">
            <mxPoint x="140" y="220" as="sourcePoint" />
            <mxPoint x="220" y="220" as="targetPoint" />
          </mxGeometry>
        </mxCell>
        <mxCell id="VaJh7SRLxxNy-uP_d12Z-7" value="Loads" style="text;strokeColor=none;fillColor=none;html=1;fontSize=24;fontStyle=1;verticalAlign=middle;align=center;" vertex="1" parent="1">
          <mxGeometry x="220" y="200" width="100" height="40" as="geometry" />
        </mxCell>
        <mxCell id="VaJh7SRLxxNy-uP_d12Z-8" value="" style="shape=flexArrow;endArrow=classic;html=1;rounded=0;fillColor=#000000;" edge="1" parent="1">
          <mxGeometry width="50" height="50" relative="1" as="geometry">
            <mxPoint x="280" y="359.5" as="sourcePoint" />
            <mxPoint x="360" y="359.5" as="targetPoint" />
          </mxGeometry>
        </mxCell>
        <mxCell id="VaJh7SRLxxNy-uP_d12Z-9" value="&lt;font style=&quot;font-size: 22px;&quot;&gt;&lt;b&gt;OpenSBI&lt;br&gt;(M-mode)&lt;br&gt;&lt;/b&gt;&lt;/font&gt;" style="rounded=0;whiteSpace=wrap;html=1;shadow=1;" vertex="1" parent="1">
          <mxGeometry x="360" y="310" width="140" height="100" as="geometry" />
        </mxCell>
        <mxCell id="VaJh7SRLxxNy-uP_d12Z-10" value="" style="shape=flexArrow;endArrow=classic;html=1;rounded=0;fillColor=#FFFFFF;entryX=0.5;entryY=0;entryDx=0;entryDy=0;" edge="1" parent="1" target="VaJh7SRLxxNy-uP_d12Z-9">
          <mxGeometry width="50" height="50" relative="1" as="geometry">
            <mxPoint x="430" y="240" as="sourcePoint" />
            <mxPoint x="454" y="240" as="targetPoint" />
          </mxGeometry>
        </mxCell>
        <mxCell id="VaJh7SRLxxNy-uP_d12Z-11" value="&lt;font style=&quot;font-size: 24px;&quot;&gt;PS&lt;/font&gt;" style="rounded=0;whiteSpace=wrap;html=1;shadow=1;" vertex="1" parent="1">
          <mxGeometry x="370" y="180" width="120" height="60" as="geometry" />
        </mxCell>
        <mxCell id="VaJh7SRLxxNy-uP_d12Z-12" value="&lt;font style=&quot;font-size: 22px;&quot;&gt;&lt;b&gt;Linux&lt;br&gt;(S-mode)&lt;br&gt;&lt;/b&gt;&lt;/font&gt;" style="rounded=0;whiteSpace=wrap;html=1;shadow=1;" vertex="1" parent="1">
          <mxGeometry x="580" y="310" width="140" height="100" as="geometry" />
        </mxCell>
        <mxCell id="VaJh7SRLxxNy-uP_d12Z-13" value="" style="shape=flexArrow;endArrow=classic;html=1;rounded=0;fillColor=#000000;" edge="1" parent="1">
          <mxGeometry width="50" height="50" relative="1" as="geometry">
            <mxPoint x="500" y="340" as="sourcePoint" />
            <mxPoint x="580" y="340" as="targetPoint" />
          </mxGeometry>
        </mxCell>
        <mxCell id="VaJh7SRLxxNy-uP_d12Z-14" value="" style="shape=flexArrow;endArrow=classic;html=1;rounded=0;fillColor=#FFFFFF;" edge="1" parent="1">
          <mxGeometry width="50" height="50" relative="1" as="geometry">
            <mxPoint x="500" y="380" as="sourcePoint" />
            <mxPoint x="580" y="380" as="targetPoint" />
          </mxGeometry>
        </mxCell>
        <mxCell id="VaJh7SRLxxNy-uP_d12Z-15" value="&lt;font style=&quot;font-size: 22px;&quot;&gt;RootFS&lt;/font&gt;" style="rounded=0;whiteSpace=wrap;html=1;shadow=1;" vertex="1" parent="1">
          <mxGeometry x="590" y="180" width="120" height="60" as="geometry" />
        </mxCell>
        <mxCell id="VaJh7SRLxxNy-uP_d12Z-16" value="" style="shape=flexArrow;endArrow=classic;html=1;rounded=0;fillColor=#FFFFFF;entryX=0.5;entryY=1;entryDx=0;entryDy=0;exitX=0.5;exitY=0;exitDx=0;exitDy=0;" edge="1" parent="1" source="VaJh7SRLxxNy-uP_d12Z-12" target="VaJh7SRLxxNy-uP_d12Z-15">
          <mxGeometry width="50" height="50" relative="1" as="geometry">
            <mxPoint x="150" y="230" as="sourcePoint" />
            <mxPoint x="230" y="230" as="targetPoint" />
          </mxGeometry>
        </mxCell>
      </root>
    </mxGraphModel>
  </diagram>
</mxfile>
